<svg version="1.1" xmlns="http://www.w3.org/2000/svg" viewBox="0 0 147.66641648542463 143.9751254294888"
    width="442.9992494562739" height="431.9253762884664">
    <!-- svg-source:excalidraw -->

    <defs>
        <style class="style-fonts">
            @font-face {
                font-family: "Virgil";
                src: url("https://excalidraw.com/Virgil.woff2");
            }

            @font-face {
                font-family: "Cascadia";
                src: url("https://excalidraw.com/Cascadia.woff2");
            }
        </style>

    </defs>
    <g stroke-linecap="round" transform="translate(10 10) rotate(0 63.83320824271232 61.9875627147444)">
        <path d="M-1.8 -1.16 L127.01 -0.06 L126.7 124.77 L-1.92 125.83" stroke="none" stroke-width="0" fill="#ffffff">
        </path>
        <path
            d="M0.49 -1.04 C29.91 -1.9, 61.8 -0.54, 127.29 -1.97 M-0.38 -0.59 C26.76 -0.16, 54.02 0.65, 128.45 -0.97 M127.16 1.56 C126.76 41.72, 128.74 82.9, 125.78 124.95 M128.63 0.5 C127.46 47.65, 127.88 96.35, 128.19 123.12 M128.43 124.6 C88.45 123.33, 49.54 125.41, 0.4 123.69 M127.12 123.24 C101.68 124.77, 74.96 125.06, 0.62 123.49 M1.36 125.47 C1.48 98.18, 1.5 72.38, -0.95 -0.51 M-0.9 124.26 C-0.69 96.71, -0.03 69.3, -0.7 0.53"
            stroke="#ffffff" stroke-width="4" fill="none"></path>
    </g>
    <g stroke-linecap="round"
        transform="translate(22.905738190422653 17.84756876159736) rotate(0 12.727578194441321 13.476259264702549)">
        <path d="M-1.06 -0.63 L26.51 -0.28 L26.91 28.42 L1.56 28.9" stroke="none" stroke-width="0" fill="#000000">
        </path>
        <path
            d="M-1.78 -0.13 C9.13 -0.07, 17 -0.03, 27.44 1.99 M-0.46 0.82 C9.6 0.23, 19.14 -0.57, 26.34 0.96 M25.34 1.2 C27.24 8.36, 25.59 20.45, 23.89 26.14 M26.11 0.55 C25.39 9.6, 24.56 20.61, 25.91 26.3 M26.82 28.51 C17.51 28.45, 7.89 25.68, 0.88 26.37 M24.71 27.55 C19.58 26.46, 14.24 27.55, 0.52 27.36 M-0.62 25.14 C-1.02 21.78, -0.02 13.5, -1.49 1.91 M0.03 26.28 C-0.81 18.16, 0.73 7.46, 0.04 0.78"
            stroke="#000000" stroke-width="4" fill="none"></path>
    </g>
    <g stroke-linecap="round"
        transform="translate(48.36089457929893 17.84756876159736) rotate(0 12.727578194441321 13.476259264702549)">
        <path
            d="M1.26 -0.27 C6.94 -0.21, 13.32 2.01, 27.18 0.45 M-0.24 0.05 C5.32 -0.96, 12.58 0.75, 26.25 -0.42 M27.36 -1.88 C25.69 9.38, 23.87 18.01, 27.09 25.17 M25.63 -0.69 C24.98 7.91, 26.08 15.09, 25.78 26.19 M25.96 28.65 C19.14 26.07, 15 26.57, -1.21 26.27 M25.67 26.63 C20.49 27.87, 14.1 27.52, -0.61 26.01 M-1.27 28.22 C-0.19 19.64, -1.4 15.38, 0.99 1.84 M-0.56 27.58 C0.97 20.87, 0.03 16.88, -0.53 -0.31"
            stroke="#000000" stroke-width="4" fill="none"></path>
    </g>
    <g stroke-linecap="round"
        transform="translate(73.85036551723942 17.721940147056557) rotate(0 12.727578194441321 13.476259264702549)">
        <path d="M1.45 1.47 L27.01 1.95 L26.45 25.08 L-0.61 28.77" stroke="none" stroke-width="0" fill="#000000"></path>
        <path
            d="M1.28 -0.22 C9.46 2.03, 16.68 0.48, 24.05 -0.92 M-0.53 -0.75 C10.61 0.95, 20.26 -0.44, 25.95 -0.06 M25.7 -0.03 C24.15 8.89, 27.34 17.63, 25.3 28.26 M24.8 0.04 C25.96 8.91, 25.83 18.35, 24.68 27.63 M24.81 25.87 C16.72 26.59, 5.01 26.49, -1.33 25.46 M26.43 27.72 C16.81 27.28, 6.52 25.93, -0.5 26.64 M-0.27 26.38 C-1.32 23.21, 1.16 17.5, -1.97 0.05 M0.98 26.29 C0.19 21.45, -0.38 14.08, 0.53 -0.14"
            stroke="#000000" stroke-width="4" fill="none"></path>
    </g>
    <g stroke-linecap="round"
        transform="translate(99.30552190611888 17.84756876159736) rotate(0 12.727578194441321 13.476259264702549)">
        <path
            d="M1.99 1.99 C9.03 0.48, 13.19 -0.89, 27.1 -0.47 M0.88 0.96 C8.56 -0.23, 16.01 0.14, 26.06 0.95 M23.89 -0.81 C27.12 3.76, 25.33 12.41, 26.55 27.31 M25.91 -0.65 C25.6 5.47, 24.51 13.15, 26.23 27.21 M26.34 26.37 C14.45 26.14, 4.53 25.33, 1.2 27.39 M25.98 27.36 C18.04 26.21, 11.34 26.84, -0.91 26.32 M-1.49 28.86 C1.02 19, -1.94 7.41, -1.34 -1.12 M0.04 27.73 C-0.79 16.87, 0.26 7.28, 0.73 0.74"
            stroke="#000000" stroke-width="4" fill="none"></path>
    </g>
    <g stroke-linecap="round"
        transform="translate(22.905738190422653 44.95479177205743) rotate(0 12.727578194441321 13.476259264702549)">
        <path
            d="M1.73 0.45 C5.95 -1.17, 16.35 -0.72, 25.55 -1.06 M0.8 -0.42 C6.21 -0.3, 12.04 0.71, 24.51 0.12 M27.09 -1.78 C25.09 9.35, 26.34 16.44, 24.08 25.65 M25.78 -0.77 C24.8 8.88, 26.36 16.65, 26.3 26.63 M24.24 26.27 C17.86 25.39, 14.13 27.32, -0.65 28.89 M24.84 26.01 C15.37 26.75, 5.38 26.42, 0.63 26.82 M0.99 28.79 C-1.77 19.69, -1.14 11.21, 1.25 1.96 M-0.53 26.64 C0.52 20.51, 0.72 15.08, 0.78 0.97"
            stroke="#000000" stroke-width="4" fill="none"></path>
    </g>
    <g stroke-linecap="round"
        transform="translate(48.36089457929893 44.89197746478658) rotate(0 12.727578194441321 13.476259264702549)">
        <path d="M-0.61 1.82 L25.65 0.88 L25.93 25.3 L-1.25 28.63" stroke="none" stroke-width="0" fill="#000000"></path>
        <path
            d="M-1.41 -0.92 C11.82 -0.53, 20.45 -1.12, 23.95 1.76 M0.49 -0.06 C10.68 1.06, 19.21 0.23, 25.44 -0.78 M25.3 1.31 C26.77 7.35, 24.3 12.68, 25.54 27.86 M24.68 0.68 C26.32 6.58, 26.39 12.33, 24.92 27.39 M24.12 25.46 C19.76 27.31, 11.01 28.81, 1.53 28 M24.96 26.64 C15.87 26.08, 8.73 26.58, -0.29 26.21 M-1.97 27.01 C-1.47 15.17, 1.12 7.6, -1.32 0.07 M0.53 26.81 C0.87 17.51, 0.92 7.57, 0.5 -0.94"
            stroke="#000000" stroke-width="4" fill="none"></path>
    </g>
    <g stroke-linecap="round"
        transform="translate(73.85036551723942 44.95479177205743) rotate(0 12.727578194441321 13.476259264702549)">
        <path
            d="M1.65 -0.47 C8.3 -0.95, 14.91 1.88, 27.37 1.6 M0.6 0.95 C5.62 0.14, 13.1 -0.77, 25.05 0.82 M26.55 0.36 C24.06 4.38, 25.52 12.27, 24.15 27.6 M26.23 0.25 C26.09 5.7, 24.71 12.48, 25.17 26.35 M26.66 27.39 C18.03 28.7, 13.44 27.81, 0.82 25.73 M24.55 26.32 C20.84 26.74, 14.67 26.13, 0.95 27.45 M-1.34 25.83 C1.51 18.34, -1.05 5.89, 1.55 -1.06 M0.73 27.69 C0.64 20.69, 0.35 11.54, -0.3 0.91"
            stroke="#000000" stroke-width="4" fill="none"></path>
    </g>
    <g stroke-linecap="round"
        transform="translate(99.30552190611888 44.95479177205743) rotate(0 12.727578194441321 13.476259264702549)">
        <path d="M0.47 -1.66 L24.21 1.68 L26.26 28.88 L-0.52 25.85" stroke="none" stroke-width="0" fill="#000000">
        </path>
        <path
            d="M0.1 -1.06 C4.96 1.82, 14.85 1.66, 24.61 0.98 M-0.94 0.12 C7.48 -1.03, 14.58 0.57, 24.56 -0.08 M24.08 -1.31 C25.69 10.76, 24.3 20.35, 23.92 25.4 M26.3 -0.32 C25.13 10.37, 25.38 19.24, 25.12 26.29 M24.8 28.89 C21.25 28.05, 14.79 25.79, -1.88 25.95 M26.09 26.82 C18.32 26.05, 12.72 27.28, 0.92 25.97 M1.25 28.91 C-1.14 18.87, 1.73 9.58, -0.63 1.06 M0.78 27.93 C0.3 18.3, -0.5 12.44, 0.1 0.44"
            stroke="#000000" stroke-width="4" fill="none"></path>
    </g>
    <g stroke-linecap="round"
        transform="translate(22.905738190422653 72.06201478251887) rotate(0 12.727578194441321 13.476259264702549)">
        <path d="M-1.25 1.68 L26.26 1.93 L24.93 25.85 L0.5 27.34" stroke="none" stroke-width="0" fill="#000000"></path>
        <path
            d="M-1.51 1.76 C8.96 1.73, 13.23 1.12, 25.34 1.2 M-0.02 -0.78 C9.65 0.78, 19.23 -0.11, 26.11 0.55 M25.54 0.9 C23.97 9.21, 23.74 15.59, 26.82 28.51 M24.92 0.44 C25.39 8.16, 25.34 16.87, 24.71 27.55 M26.99 28 C18.08 25.98, 7.19 26.2, -0.62 25.14 M25.17 26.21 C20.39 27.41, 14.33 25.93, 0.03 26.28 M-1.32 27.02 C1.38 19.33, -0.8 14.87, -0.28 1.45 M0.5 26.01 C-0.51 17.79, -0.11 7.25, 0.24 -0.83"
            stroke="#000000" stroke-width="4" fill="none"></path>
    </g>
    <g stroke-linecap="round"
        transform="translate(48.36089457929893 72.06201478251887) rotate(0 12.727578194441321 13.476259264702549)">
        <path
            d="M1.92 1.6 C5.44 0.76, 12.46 0.98, 27.36 -1.88 M-0.41 0.82 C7.06 0.12, 16.56 0.75, 25.63 -0.69 M24.15 0.64 C23.93 4.78, 26.83 14.21, 25.96 28.65 M25.17 -0.61 C24.97 6.55, 24.56 15.03, 25.67 26.63 M26.27 25.73 C13.47 26.09, 4.62 25.27, -1.27 28.22 M26.41 27.45 C19.08 25.78, 10.89 26.09, -0.56 27.58 M1.55 25.9 C-0.45 17.29, -0.1 6.96, 1.47 1.56 M-0.3 27.86 C-0.04 16.68, 0.1 4.71, -0.62 0.84"
            stroke="#000000" stroke-width="4" fill="none"></path>
    </g>
    <g stroke-linecap="round"
        transform="translate(73.85036551723942 72.06201478251887) rotate(0 12.727578194441321 13.476259264702549)">
        <path d="M-0.52 -1.1 L25.95 0.38 L23.73 26.26 L1.73 27.88" stroke="none" stroke-width="0" fill="#000000"></path>
        <path
            d="M-0.85 0.98 C9.77 1, 21.66 -2.09, 25.7 -0.03 M-0.89 -0.08 C6.3 0.34, 11.47 -0.89, 24.8 0.04 M23.92 -1.55 C26.64 10.86, 25.79 20.3, 24.81 25.87 M25.12 -0.67 C24.63 9.87, 25.6 18.22, 26.43 27.72 M23.58 25.95 C15.87 24.99, 6.26 28.07, -0.27 26.38 M26.38 25.97 C19.74 26.41, 13.41 27.7, 0.98 26.29 M-0.63 28.01 C-0.49 20.22, 1.26 12.15, 1.95 0.99 M0.1 27.39 C0.32 20.57, -0.54 16.68, 0.4 0.96"
            stroke="#000000" stroke-width="4" fill="none"></path>
    </g>
    <g stroke-linecap="round"
        transform="translate(99.30552190611888 72.06201478251887) rotate(0 12.727578194441321 13.476259264702549)">
        <path
            d="M-0.11 1.2 C11.58 -2.01, 19.59 -0.16, 23.89 -0.81 M0.66 0.55 C9.89 -0.67, 18.77 0.06, 25.91 -0.65 M26.82 1.56 C25.76 10.65, 24.6 16.83, 26.34 26.37 M24.71 0.6 C25.58 6.13, 26.33 13.67, 25.98 27.36 M24.83 25.14 C18.1 28.1, 13.02 26.25, -1.49 28.86 M25.48 26.28 C16 27.33, 8.65 26.04, 0.04 27.73 M-0.28 28.4 C1.56 21.85, 2.03 14.62, -1.88 -0.61 M0.24 26.12 C-0.65 17.25, 0.38 6.84, -0.26 -0.55"
            stroke="#000000" stroke-width="4" fill="none"></path>
    </g>
    <g stroke-linecap="round"
        transform="translate(22.905738190422653 99.30066675302714) rotate(0 12.727578194441321 13.476259264702549)">
        <path
            d="M1.9 -1.88 C9.13 -0.19, 16.21 -0.97, 27.09 -1.78 M0.18 -0.69 C6.78 -0.1, 15.32 -0.79, 25.78 -0.77 M25.96 1.69 C24.99 4.92, 26.52 11.42, 24.24 26.27 M25.67 -0.33 C26.22 7.05, 25.78 12.99, 24.84 26.01 M24.19 28.22 C18.82 26.15, 11.24 28.63, 0.99 28.79 M24.89 27.58 C21.31 26.12, 15.24 27.56, -0.53 26.64 M1.47 28.51 C1.98 18.44, -1.84 7.33, 1.82 0.19 M-0.62 27.79 C0.34 18.65, -0.32 7.87, 0.25 0.19"
            stroke="#000000" stroke-width="4" fill="none"></path>
    </g>
    <g stroke-linecap="round"
        transform="translate(48.36089457929893 99.23785244575674) rotate(0 12.727578194441321 13.476259264702549)">
        <path d="M1.73 0.93 L23.57 0.06 L24.26 27.15 L-0.9 25.71" stroke="none" stroke-width="0" fill="#000000"></path>
        <path
            d="M0.25 -0.03 C7.6 -0.57, 19.96 -1.54, 25.3 1.31 M-0.65 0.04 C9.48 -0.48, 18.38 -0.59, 24.68 0.68 M24.81 -1.08 C26.4 9.6, 24.31 19.69, 24.12 25.46 M26.43 0.77 C26.04 10.11, 24.9 18.47, 24.96 26.64 M25.19 26.38 C18.64 29.02, 15.78 28.95, -1.97 27.01 M26.43 26.29 C19.56 27.89, 13.06 26.8, 0.53 26.81 M1.95 27.95 C-2.07 16.3, 1.62 7.06, 0.88 0.47 M0.4 27.92 C-0.09 20.55, 0.42 15.44, -0.86 -0.35"
            stroke="#000000" stroke-width="4" fill="none"></path>
    </g>
    <g stroke-linecap="round"
        transform="translate(73.85036551723942 99.30066675302714) rotate(0 12.727578194441321 13.476259264702549)">
        <path
            d="M-1.57 -0.81 C6.87 -1.78, 10.32 1.31, 26.55 0.36 M0.45 -0.65 C6.21 -0.78, 11 0.67, 26.23 0.25 M26.34 -0.58 C24.16 9.69, 24.03 19.25, 26.66 27.39 M25.98 0.41 C25.11 6.27, 25.22 14.1, 24.55 26.32 M23.97 28.86 C17.19 28.72, 4.98 26.93, -1.34 25.83 M25.49 27.73 C15.7 26.47, 7.53 26.65, 0.73 27.69 M-1.88 26.34 C1.56 16.96, 0.61 7.06, -1.66 -1.25 M-0.26 26.4 C0.14 16.79, -0.97 5.9, 0.87 0.47"
            stroke="#000000" stroke-width="4" fill="none"></path>
    </g>
    <g stroke-linecap="round"
        transform="translate(99.30552190611888 99.30066675302714) rotate(0 12.727578194441321 13.476259264702549)">
        <path d="M-1.2 0.2 L24.55 -1.25 L25.54 25.17 L0.4 26.32" stroke="none" stroke-width="0" fill="#000000"></path>
        <path
            d="M1.63 -1.78 C7.44 1.41, 16.28 0.46, 24.08 -1.31 M0.32 -0.77 C6.97 0.85, 16.26 0.42, 26.3 -0.32 M24.24 -0.68 C24.24 5.14, 26.77 13.7, 24.8 28.89 M24.84 -0.94 C25.1 9.84, 24.69 19.66, 26.09 26.82 M26.44 28.79 C16.58 27.25, 10.31 26.07, 1.25 28.91 M24.93 26.64 C20.03 27.01, 14.27 27.89, 0.78 27.93 M1.82 27.14 C1.13 18, -1.4 6.85, 1.68 0.81 M0.25 27.14 C-0.79 15.92, 0.94 6.05, -0.94 0.03"
            stroke="#000000" stroke-width="4" fill="none"></path>
    </g>
</svg>